<svg width="1171" height="747" viewBox="0 0 1171 747" fill="none" xmlns="http://www.w3.org/2000/svg">
<path d="M506.432 286.302C506.091 286.302 505.748 286.194 505.455 285.968C505.188 285.758 498.859 280.759 494.026 270.562C489.594 261.211 485.658 245.534 492.066 223.921C496.413 209.259 500.768 198.836 504.609 189.634C511.583 172.94 516.623 160.878 517.03 135.306C517.043 134.431 517.689 133.68 518.643 133.741C519.525 133.757 520.225 134.476 520.212 135.357C519.795 161.54 514.389 174.48 507.545 190.863C503.734 199.988 499.416 210.328 495.118 224.828C483.431 264.23 507.17 283.27 507.412 283.454C508.102 283.995 508.226 284.994 507.689 285.688C507.374 286.092 506.906 286.302 506.432 286.302Z" fill="#000C3E"/>
<path d="M636.799 35.0354C636.561 52.3695 622.316 66.2323 604.979 65.9937C587.645 65.755 573.785 51.5104 574.021 34.1732C574.259 16.8391 588.507 2.97943 605.841 3.21488C623.175 3.45351 637.038 17.7013 636.799 35.0354Z" fill="#000C3E"/>
<path d="M503.394 275.089C503.394 275.089 513.051 293.858 550.808 299.645C588.563 305.43 617.749 291.125 647.024 300.963C676.299 310.804 717.907 296.091 725.928 283.699C733.952 271.306 729.001 136.282 705.577 114.179C682.153 92.0755 561.792 76.0205 536.433 103.138C511.075 130.259 486.55 260.268 503.394 275.089Z" fill="#000C3E"/>
<path d="M717.938 163.38C717.155 220.508 670.209 266.185 613.078 265.402C555.95 264.62 510.273 217.67 511.055 160.542C511.841 103.414 558.788 57.7371 615.916 58.5198C673.044 59.3057 718.721 106.252 717.938 163.38Z" fill="#000C3E"/>
<path d="M529.966 160.087C529.966 160.087 537.198 285.52 622.201 288.925C707.201 292.329 702.915 115.46 671.801 99.3632C640.687 83.27 512.587 89.4712 529.966 160.087Z" fill="#FFCEB0"/>
<path d="M617.744 184.891C617.744 184.891 634.871 223.145 630.761 225.805C626.65 228.462 614.432 228.296 611.075 225.534C607.719 222.773 611.012 180.726 617.744 184.891Z" fill="#F5A473"/>
<path d="M592.633 198.426C592.522 202.83 588.863 206.31 584.46 206.199C580.056 206.091 576.575 202.432 576.687 198.028C576.795 193.625 580.454 190.144 584.86 190.252C589.264 190.364 592.745 194.023 592.633 198.426Z" fill="#41294A"/>
<path d="M661.01 193.045C660.899 197.449 657.24 200.929 652.836 200.818C648.433 200.71 644.952 197.051 645.064 192.647C645.172 188.244 648.831 184.763 653.237 184.871C657.641 184.982 661.122 188.641 661.01 193.045Z" fill="#41294A"/>
<path d="M595.202 91.5536C595.202 91.5536 565.118 106.995 559.986 134.758C554.851 162.522 559.525 233.192 527.205 230.713C527.205 230.713 461.451 92.1963 595.202 91.5536Z" fill="#41294A"/>
<path d="M611.256 91.7737C608.542 93.8163 642.679 92.9223 662.759 116.12C682.842 139.318 688.881 198.343 691.926 199.367C694.971 200.395 705.257 125.735 683.329 103.899C661.4 82.0662 626.7 80.1508 611.256 91.7737Z" fill="#41294A"/>
<path d="M684.725 204.584C684.725 204.584 692.103 172.964 706.542 183.813C720.98 194.663 708.938 227.807 694.998 231.119C681.062 234.432 677.372 220.966 684.725 204.584Z" fill="#FFCEB0"/>
<path d="M550.746 202.746C550.746 202.746 544.236 170.935 529.505 181.384C514.777 191.833 525.906 225.299 539.747 228.993C553.591 232.683 557.647 219.326 550.746 202.746Z" fill="#FFCEB0"/>
<path d="M649.183 164.911C649.183 164.911 664.195 156.991 673.444 168.369C681.58 178.372 663.011 170.265 656.177 171.56C649.339 172.859 640.31 172.292 649.183 164.911Z" fill="#41294A"/>
<path d="M589.527 167.793C589.527 167.793 574.13 160.65 565.473 172.483C557.859 182.89 575.989 173.845 582.883 174.793C589.775 175.738 598.767 174.71 589.527 167.793Z" fill="#41294A"/>
<path d="M643.732 249.18C643.732 249.18 633.939 234.382 623.344 235.314C612.745 236.249 604.622 249.889 603.197 250.462C603.197 250.462 619.736 258.229 643.732 249.18Z" fill="#41294A"/>
<path d="M584.172 180.667C570.914 180.667 559.979 191.46 559.794 204.721C559.708 211.231 562.158 217.391 566.702 222.062C571.245 226.729 577.332 229.348 583.845 229.437L584.185 229.44C597.443 229.44 608.379 218.651 608.56 205.389C608.745 191.947 597.959 180.858 584.513 180.671L584.172 180.667ZM584.185 232.622L583.8 232.619C576.438 232.52 569.556 229.555 564.42 224.279C559.285 219.001 556.514 212.039 556.612 204.677C556.819 189.684 569.183 177.486 584.172 177.486L584.557 177.489C599.757 177.699 611.949 190.235 611.742 205.431C611.539 220.423 599.174 232.622 584.185 232.622Z" fill="#FFFCF6"/>
<path d="M653.038 175.156C639.777 175.156 628.841 185.948 628.66 199.209C628.475 212.649 639.264 223.741 652.707 223.925L653.048 223.928C666.309 223.928 677.245 213.139 677.426 199.878C677.515 193.365 675.062 187.205 670.522 182.534C665.978 177.87 659.891 175.248 653.378 175.159L653.038 175.156ZM653.048 227.11L652.666 227.107C637.463 226.897 625.271 214.361 625.478 199.165C625.685 184.173 638.046 171.974 653.038 171.974L653.423 171.977C660.786 172.076 667.668 175.041 672.8 180.316C677.938 185.595 680.71 192.556 680.608 199.919C680.401 214.911 668.037 227.11 653.048 227.11Z" fill="#FFFCF6"/>
<path d="M558.887 200.727C558.705 200.727 558.517 200.695 558.339 200.631L548.135 196.883C547.311 196.578 546.888 195.665 547.191 194.838C547.493 194.017 548.412 193.6 549.233 193.896L559.434 197.641C560.261 197.946 560.681 198.859 560.379 199.687C560.143 200.329 559.536 200.727 558.887 200.727Z" fill="#FFFCF6"/>
<path d="M677.873 193.496C677.196 193.496 676.566 193.061 676.356 192.38C676.092 191.543 676.559 190.649 677.399 190.385L691.345 186.032C692.178 185.765 693.076 186.239 693.337 187.076C693.601 187.916 693.133 188.807 692.293 189.071L678.347 193.426C678.192 193.474 678.029 193.496 677.873 193.496Z" fill="#FFFCF6"/>
<path d="M610.759 120.942C610.759 120.942 610.788 152.673 629.69 158.404C648.59 164.137 697.21 161.608 696.717 153.854C692.265 83.846 659.357 87.3682 631.873 78.4084C583.673 62.7002 544.251 141.4 550.153 160.001C556.055 178.598 596.737 161.232 605.445 158.617C614.151 155.998 609.327 134.436 610.759 120.942Z" fill="#000C3E"/>
<g opacity="0.210007">
<g opacity="0.210007">
<path opacity="0.210007" d="M562.015 228.112C562.015 228.112 604.895 203.37 623.715 206.829C642.535 210.291 675.565 210.832 677.06 217.583C678.559 224.332 635.185 221.29 621.844 222.588C608.503 223.886 557.287 239.244 562.015 228.112Z" fill="#DB5C5D"/>
</g>
</g>
<path d="M586.013 211.556C585.386 211.556 584.791 211.183 584.539 210.563C584.209 209.752 584.6 208.823 585.414 208.492C589.726 206.735 590.524 205.351 590.531 205.339C590.814 204.505 591.686 204.117 592.526 204.413C593.356 204.696 593.773 205.663 593.49 206.497C593.289 207.082 592.204 209.163 586.611 211.438C586.413 211.518 586.213 211.556 586.013 211.556Z" fill="#DB5C5D"/>
<path d="M651.524 208.188C650.242 208.188 648.078 207.8 644.68 206.142C643.888 205.76 643.56 204.809 643.945 204.016C644.327 203.227 645.284 202.903 646.07 203.285C650.261 205.324 651.82 204.984 651.839 204.984C652.65 204.643 653.516 205.041 653.859 205.849C654.203 206.657 653.764 207.612 652.952 207.959C652.742 208.048 652.291 208.188 651.524 208.188Z" fill="#DB5C5D"/>
<path d="M610.128 205.541C609.323 205.541 608.629 204.933 608.546 204.112C608.457 203.237 609.094 202.454 609.969 202.368L627.042 200.625C627.898 200.517 628.696 201.169 628.785 202.044C628.875 202.919 628.238 203.702 627.363 203.788L610.29 205.531C610.236 205.537 610.182 205.541 610.128 205.541Z" fill="#FFFCF6"/>
<path d="M586.487 65.5654C586.255 65.5654 586.016 65.5145 585.794 65.4032C576.767 61.0156 571.307 54.7571 569.557 46.7996C565.676 29.1314 581.46 9.58283 582.135 8.75876C582.695 8.07787 583.694 7.97924 584.371 8.53604C585.052 9.09285 585.154 10.0919 584.597 10.7728C584.441 10.9637 569.112 29.9682 572.666 46.125C574.196 53.0803 579.08 58.6038 587.184 62.546C587.973 62.9278 588.304 63.8823 587.919 64.6714C587.645 65.2345 587.079 65.5654 586.487 65.5654Z" fill="#000C3E"/>
<path d="M622.817 70.2939C622.375 70.2939 621.936 70.1094 621.621 69.7531C621.041 69.0912 621.105 68.089 621.767 67.5067C621.951 67.3445 640.196 51.1208 639.343 34.5981C638.977 27.4869 635.067 21.2348 627.72 16.0136C627.004 15.5077 626.835 14.515 627.345 13.7959C627.854 13.0832 628.846 12.9146 629.562 13.4236C637.742 19.2335 642.105 26.3065 642.521 34.4453C643.444 52.5081 624.665 69.1962 623.864 69.8994C623.561 70.1635 623.189 70.2939 622.817 70.2939Z" fill="#000C3E"/>
<path d="M717.447 279.181C716.986 279.181 716.528 278.983 716.213 278.592C715.659 277.914 715.761 276.912 716.442 276.355C716.652 276.184 737.578 258.706 731.517 231.057C729.181 220.398 725.087 208.67 720.75 196.255C713.231 174.724 705.455 152.459 704.822 130.874C704.797 129.992 705.49 129.264 706.368 129.235C707.192 129.264 707.978 129.9 708.004 130.778C708.624 151.873 716.315 173.904 723.753 195.205C728.122 207.716 732.249 219.53 734.625 230.373C741.113 259.979 718.679 278.64 718.449 278.824C718.154 279.063 717.8 279.181 717.447 279.181Z" fill="#000C3E"/>
<path d="M723.098 165.551C723.047 165.551 722.993 165.548 722.939 165.545C722.067 165.459 721.428 164.679 721.513 163.804C724.262 135.967 718.405 113.374 704.109 96.6412C681.09 69.7078 643.691 67.2356 643.319 67.2134C642.441 67.1625 641.77 66.4116 641.824 65.5302C641.871 64.6552 642.626 63.9616 643.501 64.038C643.892 64.0603 682.639 66.6184 706.527 94.5731C721.408 111.99 727.517 135.388 724.679 164.116C724.6 164.94 723.906 165.551 723.098 165.551Z" fill="#000C3E"/>
<path d="M609.154 252.321C609.154 252.321 625.008 241.197 639.167 250.733C639.167 250.733 622.635 256.928 609.154 252.321Z" fill="#DB5C5D"/>
<path d="M619.644 263.741C618.079 263.741 616.733 263.725 615.903 263.712C615.025 263.699 614.325 262.977 614.337 262.096C614.35 261.217 614.951 260.505 615.954 260.53C621.961 260.61 629.139 260.463 630.256 260.04C631.073 259.728 631.996 260.136 632.311 260.953C632.626 261.774 632.225 262.687 631.407 263.006C629.816 263.623 623.911 263.741 619.644 263.741Z" fill="#DB5C5D"/>
<path d="M542.48 220.203C542.337 220.203 542.194 220.184 542.051 220.143C541.204 219.907 540.711 219.032 540.946 218.183C545.299 202.583 533.743 192.538 533.625 192.436C532.957 191.87 532.874 190.865 533.444 190.193C534.01 189.525 535.016 189.442 535.687 190.015C536.228 190.473 548.907 201.498 544.01 219.042C543.813 219.742 543.177 220.203 542.48 220.203Z" fill="#DB5C5D"/>
<path d="M690.92 224.003C690.885 224.003 690.853 224.003 690.815 224C689.94 223.943 689.275 223.185 689.329 222.31C690.519 203.847 699.367 193.977 699.746 193.567C700.338 192.917 701.343 192.873 701.989 193.465C702.638 194.057 702.683 195.062 702.094 195.711C702.008 195.806 693.618 205.234 692.508 222.514C692.45 223.357 691.75 224.003 690.92 224.003Z" fill="#DB5C5D"/>
<path d="M658.972 275.941C658.972 275.941 664.031 332.534 657.318 341.485C650.604 350.438 608.084 343.721 596.893 341.485C585.703 339.248 585.681 245.648 587.94 251.97C606.623 304.185 657.684 257.977 658.972 275.941Z" fill="#FFCEB0"/>
<path d="M591.986 281.539C591.986 281.539 622.152 296.038 656.445 278.487C656.445 278.487 659.111 299.57 656.445 304.431C653.782 309.293 599.46 312.767 588.766 288.806C588.766 288.806 588.9 280.498 591.986 281.539Z" fill="#F5A473"/>
<path d="M427.249 724.876H817.622C817.622 724.876 837.562 385.474 788.662 348.566C739.759 311.655 524.486 330.093 473.804 361.621C423.122 393.149 427.249 724.876 427.249 724.876Z" fill="#FB4C47"/>
<path d="M622.153 334.778C622.153 334.778 607.106 465.241 613.673 483.4C620.237 501.558 611.828 582.065 609.155 592.53C606.48 602.995 525.374 607.439 504.445 599.068C483.515 590.697 509.777 365.045 521.492 323.298C533.211 281.547 620.864 306.145 622.153 334.778Z" fill="#05BA6E"/>
<path d="M383.969 174.932C383.969 174.932 416.598 237.425 439.465 238.004C462.335 238.583 539.454 144.668 567.889 143.7C596.328 142.736 620.747 145.495 620.859 138.718C620.97 131.937 581.307 124.537 581.307 124.537C581.307 124.537 638.667 128.189 626.802 121.915C614.941 115.641 586.515 109.999 586.515 109.999C586.515 109.999 627.741 111.663 628.04 107.254C628.339 102.844 585.118 96.3498 585.118 96.3498C585.118 96.3498 637.712 94.6698 628.094 87.4345C618.473 80.1993 600.365 83.3396 551.389 90.8199C502.409 98.3002 391.602 163.688 383.969 174.932Z" fill="#FFCEB0"/>
<path d="M441.214 171.938C441.214 171.938 493.41 203.03 470.683 238.265C446.483 275.784 447.838 264.638 443.654 279.818C439.467 294.998 508.441 324.563 511.578 337.557C514.715 350.548 482.201 510.332 451.745 503.774C425.235 498.069 277.915 414.466 256.743 330.92C240.332 266.15 374.102 107.722 441.214 171.938Z" fill="#FB4C47"/>
<path d="M577.845 536.398C577.845 536.398 520.011 663.801 541.274 680.862C562.538 697.919 579.672 686.805 598.476 697.878C617.283 708.95 635.323 703.414 650.43 693.78C665.537 684.142 626.22 557.391 609.958 545.323C593.697 533.252 580.776 529.777 577.845 536.398Z" fill="white"/>
<path d="M770.001 339.5C770.001 339.5 801.099 343.296 825.51 388C843.824 421.541 879.304 617.529 825.51 645.454C771.716 673.377 721.261 658.771 701.736 639.953C682.209 621.135 716.95 524.154 740.108 516.915C763.268 509.679 770.001 339.5 770.001 339.5Z" fill="#FB4C47"/>
<path d="M780.071 336.496C780.071 336.496 781.525 327.434 736.742 308.055C701.005 292.588 670.393 318.691 615.881 321.501C561.368 324.313 566.287 302.706 527.728 312.748C468.223 328.239 515.599 367.244 534.772 371.622C553.945 376 618.181 483.985 780.071 336.496Z" fill="#05BA6E"/>
<path d="M623.78 227.6C623.78 227.6 623.614 231.291 625.733 231.625C627.852 231.959 631.769 230.776 630.76 225.803C630.76 225.803 625.447 227.511 623.78 227.6Z" fill="white"/>
<path d="M844.514 533.318C844.365 533.318 844.212 533.309 844.059 533.287C842.589 533.077 841.501 531.893 841.345 530.483C838.695 527.419 820.899 521.002 809.028 516.719C785.509 508.234 774.962 504.037 772.693 499.446C770.768 495.554 771.63 489.942 772.722 482.837C774.449 471.593 776.603 457.593 769.463 444.109C757.134 420.822 758.308 386.281 758.366 384.824C758.436 383.067 759.953 381.661 761.665 381.766C763.421 381.833 764.79 383.312 764.726 385.065C764.71 385.409 763.565 419.371 775.089 441.131C783.212 456.479 780.784 472.27 779.012 483.801C778.162 489.321 777.364 494.536 778.398 496.627C780.326 499.602 798.898 506.302 811.186 510.734C838.879 520.725 848.495 524.744 847.658 530.588C847.432 532.176 846.07 533.318 844.514 533.318Z" fill="#B31B1F"/>
<path d="M761.5 507.159C761.223 507.159 760.943 507.124 760.66 507.047C750.148 504.18 733.816 501.196 733.654 501.164C731.923 500.852 730.777 499.195 731.092 497.467C731.407 495.736 733.059 494.572 734.793 494.906C735.47 495.027 751.554 497.967 762.334 500.906C764.03 501.371 765.029 503.118 764.567 504.814C764.182 506.23 762.9 507.159 761.5 507.159Z" fill="#B31B1F"/>
<path d="M818.653 664.54C818.603 664.54 818.555 664.54 818.507 664.537C759.613 661.867 700.936 636.779 697.763 612.916C696.768 605.417 696.048 601.665 695.603 599.811C694.413 599.219 693.691 597.952 693.904 596.568C694.308 593.947 696.083 593.018 697.493 593.018H697.528C700.732 593.053 701.795 594.93 704.073 612.079C706.535 630.603 759.957 655.513 818.793 658.179C820.55 658.259 821.908 659.745 821.829 661.501C821.752 663.21 820.343 664.54 818.653 664.54Z" fill="#B31B1F"/>
<path d="M713.077 608.226C712.845 608.226 712.609 608.2 712.371 608.149C710.659 607.761 709.584 606.056 709.972 604.341C710.109 603.727 724.025 542.383 737.032 498.256C737.529 496.569 739.31 495.602 740.984 496.105C742.67 496.601 743.634 498.37 743.135 500.056C730.185 543.987 716.316 605.133 716.179 605.747C715.842 607.224 714.531 608.226 713.077 608.226Z" fill="#B31B1F"/>
<path d="M437.001 474.994C436.845 474.994 436.682 474.982 436.523 474.959C434.786 474.699 433.59 473.076 433.851 471.342C434.178 469.146 442.034 417.3 452.814 393.039C463.294 369.463 468.659 345.558 468.713 345.32C469.088 343.605 470.784 342.532 472.509 342.902C474.224 343.283 475.305 344.986 474.924 346.701C474.704 347.7 469.365 371.467 458.63 395.626C448.2 419.098 440.22 471.755 440.141 472.284C439.906 473.865 438.547 474.994 437.001 474.994Z" fill="#B31B1F"/>
<path d="M388.497 293.977C380.028 293.977 370.536 293.462 360.088 292.132C358.344 291.909 357.11 290.318 357.332 288.575C357.552 286.831 359.184 285.619 360.889 285.819C392.707 289.873 415.31 286.141 426.961 283.598C421.158 281.743 413.028 279.936 404.915 280.378C386.658 281.237 359.944 264.928 358.815 264.228C357.32 263.305 356.858 261.345 357.781 259.85C358.704 258.354 360.667 257.887 362.159 258.816C362.42 258.975 388.351 274.817 404.587 274.021C420.054 273.207 438.371 280.095 440.035 283.051C440.63 284.104 440.582 285.472 439.905 286.475C439.275 287.4 437.97 287.957 436.825 287.887C436.322 287.945 434.833 288.301 433.385 288.645C426.427 290.312 411.091 293.974 388.497 293.977Z" fill="#B31B1F"/>
<path d="M466.708 225.594C465.525 225.594 464.389 224.932 463.842 223.799C463.762 223.637 455.817 207.499 442.289 201.104C426.93 193.84 409.561 168.523 408.83 167.451C407.84 165.997 408.215 164.015 409.666 163.028C411.124 162.042 413.099 162.421 414.086 163.865C414.258 164.113 431.213 188.823 445.012 195.348C460.603 202.727 469.212 220.287 469.572 221.028C470.336 222.613 469.671 224.509 468.089 225.273C467.644 225.492 467.173 225.594 466.708 225.594Z" fill="#B31B1F"/>
<path d="M614.497 410.501C614.379 410.501 614.259 410.488 614.141 410.46C613.285 410.265 612.747 409.41 612.944 408.557C613.021 408.22 620.609 375.047 622.83 358.196C626.289 331.925 614.523 322.761 614.405 322.672C613.702 322.144 613.555 321.151 614.077 320.448C614.599 319.742 615.585 319.592 616.292 320.111C616.842 320.515 629.709 330.318 625.983 358.61C623.746 375.613 616.123 408.932 616.047 409.263C615.878 410.005 615.223 410.501 614.497 410.501Z" fill="#08824F"/>
<path d="M520.663 362.657L517.503 362.291C517.503 362.291 519.972 340.811 521.261 330.251C522.562 319.599 525.601 312.325 525.731 312.02C526.072 311.205 527.007 310.836 527.815 311.17C528.623 311.514 529.002 312.449 528.662 313.257C528.63 313.327 525.661 320.454 524.42 330.639C523.132 341.19 520.663 362.654 520.663 362.657Z" fill="#08824F"/>
<path d="M611.008 715.386C592.863 715.386 582.885 714.787 569.076 713.96C551.312 712.894 526.988 711.437 470.143 710.553C468.387 710.527 466.984 709.083 467.012 707.323C467.041 705.567 468.587 704.103 470.242 704.189C527.227 705.074 551.634 706.54 569.455 707.609C583.155 708.427 593.05 709.022 611.008 709.022C633.487 709.022 653.653 706.559 673.157 704.18C690.278 702.086 706.447 700.113 723.778 699.728C760.747 698.914 788.374 699.725 788.647 699.728C790.404 699.786 791.785 701.252 791.731 703.005C791.676 704.762 790.194 706.063 788.457 706.092C788.183 706.082 760.712 705.268 723.921 706.092C706.906 706.467 690.886 708.424 673.927 710.495C654.235 712.901 633.875 715.386 611.008 715.386Z" fill="#B31B1F"/>
<path d="M755.143 672.932C753.562 672.932 751.978 672.223 750.597 670.136C746.298 663.642 745 663.107 736.689 664.386C729.171 665.56 726.202 660.231 724.236 656.709C723.581 655.531 722.957 654.421 722.413 653.992C720.949 652.837 717.293 654.224 715.747 655.076L714.204 652.296C714.879 651.92 720.873 648.723 724.386 651.494C725.426 652.318 726.161 653.635 727.014 655.156C728.913 658.551 730.879 662.048 736.202 661.243C745.716 659.773 748.258 660.845 753.25 668.379C754.574 670.384 755.719 670.11 759.248 668.052C761.927 666.48 765.99 664.109 769.019 668.341L766.435 670.193C765.255 668.554 764.186 668.85 760.851 670.797C759.257 671.73 757.202 672.932 755.143 672.932Z" fill="white"/>
<path d="M718.124 523.085C718.124 523.085 642.125 495.604 609.153 509.661C576.181 523.715 549.009 559.948 554.042 562.344C559.076 564.743 586.012 543.852 586.012 543.852C586.012 543.852 558.544 571.609 563.638 574.387C568.732 577.164 595.201 562.344 595.201 562.344C595.201 562.344 576.725 582.096 584.66 583.607C592.595 585.119 609.608 568.844 627.349 568.233C645.094 567.619 667.455 581.641 689.638 585.59C711.818 589.535 718.124 523.085 718.124 523.085Z" fill="#FFCEB0"/>
<path d="M832.818 508.84C832.621 508.84 832.423 508.821 832.223 508.783C832 508.744 809.62 504.513 782.865 499.072C781.143 498.722 780.03 497.042 780.38 495.321C780.727 493.599 782.403 492.486 784.131 492.839C810.842 498.267 833.184 502.489 833.407 502.534C835.134 502.858 836.267 504.522 835.939 506.25C835.653 507.777 834.317 508.84 832.818 508.84Z" fill="#B31B1F"/>
<path fill-rule="evenodd" clip-rule="evenodd" d="M620.41 8.76935C619.579 8.76935 618.676 8.86594 617.697 9.05912C615.312 9.53785 613.767 10.6969 612.839 12.7084C608.702 21.6617 617.424 42.9865 623.656 55.5848C627.507 41.6091 632.122 18.2475 625.601 10.8859C624.345 9.47066 622.636 8.76935 620.41 8.76935ZM623.839 66.0486C623.939 66.0677 624.04 66.0817 624.142 66.0902C624.474 66.2178 624.828 66.2837 625.186 66.2837C625.517 66.2837 625.849 66.2291 626.172 66.1115C630.422 64.5619 667.844 50.5273 672.505 34.3552C673.626 30.4665 672.837 26.6324 670.225 23.2729C665.782 17.5532 660.982 16.8729 657.735 17.3055C648.524 18.5339 639.457 30.4343 632.808 41.7397C635.16 28.8625 636.066 13.992 629.922 7.05598C627.755 4.6077 623.673 1.98304 616.568 3.39825C612.398 4.22975 609.294 6.61503 607.598 10.2896C601.32 23.8866 615.762 53.1689 620.575 62.2436C614.506 63.4151 608.402 63.6795 602.563 63.2827C589.984 62.4277 578.834 58.516 572.177 54.2365L569.798 57.9377C577.164 62.6731 589.052 66.7746 602.265 67.6725C609.194 68.1435 616.543 67.7367 623.839 66.0486ZM659.327 22.9705C659.054 22.9705 658.777 22.9873 658.5 23.0293C648.744 24.3269 636.957 45.0176 630.725 58.1073C643.68 52.6522 664.228 42.2334 666.957 32.7594C667.571 30.6261 667.159 28.7406 665.668 26.8172C663.661 24.2346 661.582 22.9705 659.327 22.9705Z" fill="#FFD310"/>
<path d="M197.27 117.75H310.515C317.784 117.75 324.662 121.045 329.218 126.71L362.458 168.048C367.173 173.91 374.363 177.223 381.883 176.997L594.85 170.596" stroke="#FFB2B1" stroke-width="5" stroke-linejoin="round"/>
<path d="M209.361 118.265C209.361 123.301 205.279 127.384 200.243 127.384C195.207 127.384 191.124 123.301 191.124 118.265C191.124 113.229 195.207 109.147 200.243 109.147C205.279 109.147 209.361 113.229 209.361 118.265Z" fill="#FF383D"/>
<path d="M81.3303 30.4904C130.103 30.4904 169.64 70.0281 169.64 118.8C169.64 167.573 130.103 207.113 81.3303 207.113V250.724" stroke="#FFD6D7" stroke-width="2.4" stroke-miterlimit="10"/>
<path d="M74.0679 252.928C74.0679 248.916 77.3185 245.665 81.3301 245.665C85.3418 245.665 88.5924 248.916 88.5924 252.928C88.5924 256.939 85.3418 260.19 81.3301 260.19C77.3185 260.19 74.0679 256.939 74.0679 252.928Z" fill="#F2AEB0"/>
<path d="M650.77 232.046H819.584C828.398 232.046 836.503 236.877 840.695 244.63L871.944 302.419C876.136 310.172 884.241 315.004 893.055 315.004H975.84" stroke="#FFB2B1" stroke-width="5" stroke-linejoin="round"/>
<path d="M979.944 314.905C979.944 319.941 975.862 324.023 970.826 324.023C965.79 324.023 961.708 319.941 961.708 314.905C961.708 309.868 965.79 305.786 970.826 305.786C975.862 305.786 979.944 309.868 979.944 314.905Z" fill="#FF383D"/>
<path d="M1081.03 245.265C1129.8 245.265 1169.34 284.803 1169.34 333.578C1169.34 382.35 1129.8 421.888 1081.03 421.888V465.502" stroke="#FFD6D7" stroke-width="2.4" stroke-miterlimit="10"/>
<path d="M1073.77 467.704C1073.77 463.692 1077.02 460.442 1081.03 460.442C1085.04 460.442 1088.29 463.692 1088.29 467.704C1088.29 471.716 1085.04 474.966 1081.03 474.966C1077.02 474.966 1073.77 471.716 1073.77 467.704Z" fill="#F2AEB0"/>
<path d="M81.3325 516.642C130.105 516.642 169.643 556.18 169.643 604.952C169.643 653.727 130.105 693.265 81.3325 693.265V736.876" stroke="#FFD6D7" stroke-width="2.4" stroke-miterlimit="10"/>
<path d="M74.0701 739.08C74.0701 735.068 77.3207 731.818 81.3323 731.818C85.344 731.818 88.5946 735.068 88.5946 739.08C88.5946 743.089 85.344 746.342 81.3323 746.342C77.3207 746.342 74.0701 743.089 74.0701 739.08Z" fill="#F2AEB0"/>
<path d="M186.74 616.834H365.033C374.666 616.834 383.365 611.075 387.127 602.207L443.54 469.233C447.302 460.365 456.002 454.606 465.634 454.606H672.809" stroke="#FFB2B1" stroke-width="5" stroke-linejoin="round"/>
<path d="M201.987 617.241C201.987 622.277 197.904 626.359 192.868 626.359C187.832 626.359 183.75 622.277 183.75 617.241C183.75 612.205 187.832 608.122 192.868 608.122C197.904 608.122 201.987 612.205 201.987 617.241Z" fill="#FF383D"/>
<path d="M89.9726 274.026C41.2003 274.026 1.6626 313.563 1.6626 362.338C1.6626 411.111 41.2003 450.648 89.9726 450.648V494.262" stroke="#FFD6D7" stroke-width="2.4" stroke-miterlimit="10"/>
<path d="M97.4327 496.545C97.4327 492.533 94.1821 489.283 90.1705 489.283C86.1615 489.283 82.9082 492.533 82.9082 496.545C82.9082 500.556 86.1615 503.807 90.1705 503.807C94.1821 503.807 97.4327 500.556 97.4327 496.545Z" fill="#F2AEB0"/>
<path d="M190.511 377.07H393.822C401.243 377.07 408.246 373.638 412.792 367.772L455.528 312.629C460.074 306.763 467.077 303.331 474.498 303.331H631.721" stroke="#FFB2B1" stroke-width="5" stroke-linejoin="round"/>
<path d="M200.761 377.586C200.761 382.622 196.678 386.704 191.642 386.704C186.606 386.704 182.524 382.622 182.524 377.586C182.524 372.55 186.606 368.468 191.642 368.468C196.678 368.468 200.761 372.55 200.761 377.586Z" fill="#FF383D"/>
<path d="M1089.87 487.801C1041.1 487.801 1001.56 527.339 1001.56 576.111C1001.56 624.886 1041.1 664.424 1089.87 664.424V708.035" stroke="#FFD6D7" stroke-width="2.4" stroke-miterlimit="10"/>
<path d="M1097.13 710.239C1097.13 706.227 1093.88 702.976 1089.86 702.976C1085.85 702.976 1082.6 706.227 1082.6 710.239C1082.6 714.248 1085.85 717.501 1089.86 717.501C1093.88 717.501 1097.13 714.248 1097.13 710.239Z" fill="#F2AEB0"/>
<path d="M725.738 628.401H816.846C824.124 628.401 831.009 625.098 835.565 619.421L861.096 587.605C865.651 581.929 872.536 578.626 879.814 578.626H973.995" stroke="#FFA6A6" stroke-width="5" stroke-linejoin="round"/>
<path d="M979.943 577.913C979.943 582.949 975.861 587.031 970.825 587.031C965.789 587.031 961.706 582.949 961.706 577.913C961.706 572.876 965.789 568.794 970.825 568.794C975.861 568.794 979.943 572.876 979.943 577.913Z" fill="#FF383D"/>
<path d="M1089.87 1.64969C1041.1 1.64969 1001.56 41.1874 1001.56 89.9597C1001.56 138.732 1041.1 178.272 1089.87 178.272V221.883" stroke="#FFD6D7" stroke-width="2.4" stroke-miterlimit="10"/>
<path d="M1097.13 224.087C1097.13 220.075 1093.88 216.825 1089.87 216.825C1085.86 216.825 1082.61 220.075 1082.61 224.087C1082.61 228.099 1085.86 231.349 1089.87 231.349C1093.88 231.349 1097.13 228.099 1097.13 224.087Z" fill="#F2AEB0"/>
<path d="M975.839 96.8593H849.559C843.442 96.8593 837.555 99.1953 833.102 103.39L804.567 130.271C800.114 134.466 794.228 136.802 788.11 136.802H674.12" stroke="#FFB2B1" stroke-width="5" stroke-linejoin="round"/>
<path d="M979.941 96.1456C979.941 101.182 975.859 105.264 970.822 105.264C965.786 105.264 961.704 101.182 961.704 96.1456C961.704 91.1096 965.786 87.0273 970.822 87.0273C975.859 87.0273 979.941 91.1096 979.941 96.1456Z" fill="#FF383D"/>
</svg>
